<?xml version="1.0"?>
<svg width="1024" height="1024" xmlns="http://www.w3.org/2000/svg" xmlns:svg="http://www.w3.org/2000/svg">
 <g class="layer">
  <title>Layer 1</title>
  <path d="m113.87,184.11c9.3,-0.26 18.67,-0.08 27.98,-0.07c5.61,0 11.74,-0.48 17.27,0.31c2.16,0.31 4.18,0.88 5.88,2.3c2.33,1.95 3.86,4.93 4.14,7.94c0.28,3.07 0.13,6.25 0.12,9.34l0,15.11l0.01,14.35c0,3.08 0.19,6.28 -0.28,9.33c-0.35,2.23 -0.98,4.05 -2.46,5.8c-2.54,2.98 -5.77,3.86 -9.5,4.18c-9.73,0.17 -19.48,0.05 -29.21,0.05c-5.72,0 -12.11,0.6 -17.71,-0.43c-2.12,-0.39 -3.82,-1.22 -5.44,-2.66c-2.75,-2.46 -3.66,-5.53 -3.86,-9.1c-0.47,-8.77 -0.07,-17.75 -0.07,-26.55c0,-5.8 -0.57,-15.24 0.37,-20.6c0.39,-2.19 1.21,-3.95 2.73,-5.62c2.73,-2.99 6.2,-3.53 10.03,-3.68z" fill="#2A9D8D" id="svg_2" transform="scale(3.8209 3.8209)"/>
  <path d="m29.42,184.11c8.9,-0.34 17.89,-0.03 26.8,-0.04c5.77,-0.01 12.96,-0.55 18.61,0.21c2.18,0.29 4.37,0.84 6.11,2.24c2.26,1.82 3.94,4.62 4.24,7.52c0.34,3.34 0.19,6.78 0.2,10.14l0.01,16.44l0.05,13.09c0.01,2.94 0.17,5.95 -0.26,8.87c-0.33,2.31 -0.92,4.03 -2.45,5.85c-2.5,2.97 -5.71,3.93 -9.42,4.23c-9.59,0.3 -19.25,0.1 -28.86,0.1c-5.51,0 -11.62,0.52 -17.04,-0.28c-2.29,-0.34 -4.7,-1.08 -6.49,-2.59c-2.34,-1.98 -3.6,-4.79 -3.84,-7.81c-0.69,-8.54 -0.12,-17.56 -0.13,-26.17l-0.02,-12.98c0,-2.99 -0.18,-6.08 0.28,-9.04c0.36,-2.31 1.02,-4.09 2.59,-5.89c2.56,-2.94 5.92,-3.66 9.62,-3.89z" fill="#2A9D8D" id="svg_3" transform="scale(3.8209 3.8209)"/>
  <path d="m27.59,100.33c0.06,-0.01 0.11,-0.02 0.17,-0.03c2.77,-0.31 5.72,-0.14 8.51,-0.13l14.6,0.01l15.07,-0.01c3.08,0 6.36,-0.2 9.4,0.26c2.01,0.3 4.04,1.11 5.67,2.34c2.28,1.73 3.9,4.73 4.25,7.58c0.35,2.78 0.18,5.76 0.18,8.56l0,14.74l-0.01,15.44c0,3.12 0.17,6.39 -0.24,9.49c-0.29,2.19 -0.8,3.9 -2.2,5.67c-1.9,2.39 -4.59,3.97 -7.63,4.31c-3.1,0.35 -6.38,0.18 -9.51,0.18l-16.07,0l-13.72,0c-2.75,0.01 -5.62,0.18 -8.35,-0.12c-1.95,-0.22 -4.11,-0.65 -5.73,-1.8c-2.25,-1.61 -4.37,-4.48 -4.8,-7.27c-0.48,-3.16 -0.27,-6.57 -0.26,-9.76l0.03,-15.14l-0.02,-14.63c-0.01,-3.13 -0.16,-6.4 0.22,-9.52c0.26,-2.14 0.74,-3.84 2.05,-5.62c2.06,-2.8 5.05,-4.06 8.39,-4.55z" fill="#2A9D8D" id="svg_4" transform="scale(3.8209 3.8209)"/>
  <path d="m111.03,16.57c9.71,-0.46 19.58,-0.12 29.31,-0.13c5.78,-0.01 13.64,-0.5 19.13,0.2c1.62,0.21 3.11,0.8 4.47,1.69c2.26,1.48 4.35,4 4.88,6.7c0.73,3.72 0.46,7.81 0.46,11.59l0,15.75l0.01,13.41c0,2.88 0.16,5.86 -0.18,8.72c-0.26,2.14 -0.69,3.65 -1.92,5.47c-1.89,2.81 -4.59,4.16 -7.82,4.76c-9.71,0.43 -19.5,0.2 -29.22,0.22c-6.14,0.01 -12.72,0.51 -18.81,-0.17c-1.78,-0.2 -3.84,-0.61 -5.32,-1.62c-2.43,-1.66 -4.53,-4.64 -5.02,-7.56c-0.44,-2.68 -0.27,-5.56 -0.26,-8.27l0.02,-12.67l-0.01,-16.77c0,-3.6 -0.17,-7.31 0.25,-10.88c0.25,-2.21 0.62,-4.29 1.99,-6.11c1.97,-2.62 4.87,-3.88 8.04,-4.33z" fill="#F4A262" id="svg_5" transform="scale(3.8209 3.8209)"/>
  <path d="m200.66,100.12l27.24,0.02c5.01,0.01 10.49,-0.46 15.41,0.42c2.34,0.43 4.45,1.2 6.2,2.88c3.08,2.94 3.46,6 3.55,10.02c0.2,9.92 -0.01,19.86 0.01,29.78c0,4.76 0.63,11.74 -0.21,16.23c-0.41,2.19 -1.55,4.24 -3.11,5.83c-3.34,3.4 -7.56,3.41 -11.99,3.44l-27.94,-0.02c-5,0.02 -10.75,0.6 -15.67,-0.28c-2.3,-0.41 -4.26,-1.24 -5.97,-2.86c-2.8,-2.65 -3.33,-5.97 -3.46,-9.62c-0.33,-9.32 -0.07,-18.75 -0.07,-28.08c0,-5.33 -0.57,-13.15 0.36,-18.22c0.41,-2.27 1.31,-4.28 2.91,-5.96c3.39,-3.57 8.21,-3.49 12.74,-3.58z" fill="#F4A262" id="svg_6" transform="scale(3.8209 3.8209)"/>
  <path d="m194.4,16.59c11.01,-0.51 22.22,-0.17 33.25,-0.12c5.07,0.03 11,-0.54 15.95,0.15c1.59,0.22 3.16,0.94 4.5,1.81c2.37,1.55 4.09,3.92 4.64,6.71c0.92,4.68 0.34,16.7 0.35,22.03l0.01,16.52c0,3.33 0.17,6.81 -0.2,10.12c-0.25,2.16 -0.68,4.33 -1.94,6.14c-2,2.87 -4.91,4.21 -8.26,4.78c-9.64,0.37 -19.37,0.21 -29.03,0.22c-5.96,0.01 -12.33,0.45 -18.25,-0.23c-1.91,-0.22 -4.04,-0.65 -5.65,-1.73c-2.4,-1.61 -4.21,-4.3 -4.76,-7.14c-0.71,-3.61 -0.41,-7.7 -0.4,-11.38l0.03,-16.75c0,-6.22 -0.53,-14.26 0.08,-20.29c0.22,-2.15 0.58,-4.13 1.84,-5.95c1.87,-2.69 4.66,-4.3 7.84,-4.89z" fill="#F4A262" id="svg_7" transform="scale(3.8209 3.8209)"/>
  <path d="m33.04,16.12l27.56,0.01c4.61,0 9.55,-0.35 14.13,0.17c1.83,0.21 3.74,0.63 5.33,1.59c2.62,1.59 4.66,4.55 5.34,7.54c0.66,2.96 0.35,6.45 0.35,9.48l0,14.84l0,14.97c0,2.95 0.13,5.98 -0.14,8.91c-0.18,1.99 -0.56,4.1 -1.64,5.8c-2.46,3.87 -6.03,5.09 -10.26,6.03l-1.89,-1.91c-9.37,-9.1 -18.49,-18.48 -27.75,-27.7c-9.25,-9.22 -18.68,-18.34 -27.69,-27.8c0.58,-3.24 1.37,-6.1 3.79,-8.5c3.61,-3.57 8.18,-3.42 12.87,-3.43z" id="svg_8" transform="scale(3.8209 3.8209)"/>
  <path d="m196.9,183.86c2.67,-0.21 5.45,-0.07 8.13,-0.07l15.03,-0.01l13.61,0c2.86,0 5.82,-0.13 8.66,0.22c2.22,0.27 4.56,0.82 6.35,2.22c2.57,2.02 4.2,4.84 4.56,8.07c0.34,3.08 0.18,6.29 0.18,9.39l0,15.42l0,13.68c0.01,3.25 0.19,6.58 -0.29,9.8c-0.32,2.2 -0.88,4 -2.32,5.76c-2.37,2.89 -5.72,4.35 -9.38,4.71c-3.67,-3.31 -7.1,-6.93 -10.59,-10.43l-17.92,-17.91l-17.48,-17.49c-3.81,-3.8 -7.72,-7.53 -11.32,-11.51c0.51,-2.95 1.32,-5.7 3.36,-7.99c2.56,-2.86 5.75,-3.63 9.42,-3.86z" id="svg_9" transform="scale(3.8209 3.8209)"/>
  <path d="m100.81,111.43c0.55,0.32 56.97,56.99 57.31,57.53c-3.21,0.23 -6.49,0.11 -9.71,0.11l-16.28,0.01l-12.81,0c-2.92,0 -5.94,0.14 -8.83,-0.28c-3.14,-0.45 -5.79,-2.11 -7.68,-4.67c-1.18,-1.6 -1.89,-3.34 -2.17,-5.31c-0.69,-4.97 -0.13,-13.54 -0.14,-18.91l-0.03,-17.12c0,-3.74 -0.23,-7.66 0.34,-11.36z" id="svg_10" transform="scale(3.8209 3.8209)"/>
 </g>
</svg>